<?xml version="1.0" standalone="no"?>
<svg xmlns="http://www.w3.org/2000/svg" viewBox="0 0 183.124 29" width="183.124" height="29"><g fill="#4cc6b1" color="#4cc6b1" transform="translate(0, 0) scale(0.5686275)"><svg width="44.0" height="51.0" x="0.0" y="0.0" viewBox="0 0 44 51"><path fill="currentColor" fill-rule="evenodd" d="M21.998 0L0 12.571v25.143l4.19 2.395V15.002L21.999 4.827 39.81 15.002v20.28L21.998 45.459l-9.427-5.388V19.865l9.427-5.386 9.43 5.386v10.553l-9.43 5.387-1.045-.597V24.73l5.268-3.012-4.223-2.413-5.236 2.994v15.34l5.236 2.993 13.62-7.784V17.435l-13.62-7.781-13.617 7.78v25.068l13.617 7.784L44 37.714V12.571z"></path></svg></g><line x1="37.02" y1="1" x2="37.02" y2="28" stroke="#309b9d" stroke-linecap="round"></line><path fill="#309b9d" fill-rule="nonzero" d="M5.23 19.82L5.23 19.82Q3.17 19.82 2.03 18.96Q0.89 18.10 0.44 16.63Q0 15.17 0 13.37L0 13.37L0 6.50Q0 4.54 0.44 3.07Q0.89 1.61 2.03 0.80Q3.17 0 5.23 0L5.23 0Q7.06 0 8.12 0.67Q9.19 1.34 9.66 2.59Q10.13 3.84 10.13 5.59L10.13 5.59L10.13 7.13L7.56 7.13L7.56 5.76Q7.56 4.68 7.45 3.85Q7.34 3.02 6.86 2.57Q6.38 2.11 5.26 2.11L5.26 2.11Q4.10 2.11 3.58 2.60Q3.05 3.10 2.89 4.00Q2.74 4.90 2.74 6.10L2.74 6.10L2.74 13.80Q2.74 15.26 2.98 16.12Q3.22 16.97 3.77 17.33Q4.32 17.69 5.26 17.69L5.26 17.69Q6.36 17.69 6.84 17.20Q7.32 16.70 7.44 15.84Q7.56 14.98 7.56 13.82L7.56 13.82L7.56 12.38L10.13 12.38L10.13 13.82Q10.13 15.60 9.70 16.96Q9.26 18.31 8.21 19.07Q7.15 19.82 5.23 19.82ZM15.14 19.61L12.58 19.61L12.58 5.74L15.14 5.74L15.14 7.70Q15.91 6.43 16.68 6Q17.45 5.57 18.22 5.57L18.22 5.57Q18.31 5.57 18.40 5.57Q18.48 5.57 18.62 5.59L18.62 5.59L18.62 8.42Q18.34 8.30 17.96 8.22Q17.59 8.14 17.21 8.14L17.21 8.14Q16.61 8.14 16.12 8.41Q15.62 8.69 15.14 9.48L15.14 9.48L15.14 19.61ZM24.05 19.80L24.05 19.80Q22.42 19.80 21.53 19.16Q20.64 18.53 20.29 17.29Q19.94 16.06 19.94 14.26L19.94 14.26L19.94 11.09Q19.94 9.24 20.30 8.02Q20.66 6.79 21.56 6.17Q22.46 5.54 24.05 5.54L24.05 5.54Q25.80 5.54 26.63 6.26Q27.46 6.98 27.72 8.34Q27.98 9.70 27.98 11.59L27.98 11.59L27.98 12.72L22.51 12.72L22.51 15.50Q22.51 16.34 22.67 16.87Q22.82 17.40 23.17 17.65Q23.52 17.90 24.07 17.90L24.07 17.90Q24.65 17.90 24.95 17.63Q25.25 17.35 25.36 16.84Q25.46 16.32 25.46 15.62L25.46 15.62L25.46 14.78L27.96 14.78L27.96 15.31Q27.96 17.40 27.07 18.60Q26.18 19.80 24.05 19.80ZM22.51 10.58L22.51 11.33L25.46 11.33L25.46 10.08Q25.46 9.22 25.37 8.63Q25.27 8.04 24.97 7.74Q24.67 7.44 24.02 7.44L24.02 7.44Q23.40 7.44 23.08 7.73Q22.75 8.02 22.63 8.70Q22.51 9.38 22.51 10.58L22.51 10.58ZM32.81 19.80L32.81 19.80Q31.99 19.80 31.37 19.33Q30.74 18.86 30.38 18.13Q30.02 17.40 30.02 16.58L30.02 16.58Q30.02 15.29 30.46 14.40Q30.89 13.51 31.64 12.90Q32.40 12.29 33.40 11.83Q34.39 11.38 35.50 10.94L35.50 10.94L35.50 9.96Q35.50 9.12 35.40 8.57Q35.30 8.02 35.00 7.74Q34.70 7.46 34.10 7.46L34.10 7.46Q33.58 7.46 33.25 7.70Q32.93 7.94 32.78 8.39Q32.64 8.83 32.64 9.43L32.64 9.43L32.64 10.13L30.10 10.03Q30.14 7.73 31.15 6.64Q32.16 5.54 34.27 5.54L34.27 5.54Q36.34 5.54 37.20 6.67Q38.06 7.80 38.06 9.94L38.06 9.94L38.06 16.27Q38.06 16.92 38.10 17.52Q38.14 18.12 38.20 18.64Q38.26 19.15 38.30 19.61L38.30 19.61L35.95 19.61Q35.88 19.22 35.77 18.64Q35.66 18.05 35.62 17.57L35.62 17.57Q35.38 18.38 34.69 19.09Q34.01 19.80 32.81 19.80ZM33.82 17.59L33.82 17.59Q34.20 17.59 34.54 17.38Q34.87 17.16 35.14 16.88Q35.40 16.61 35.50 16.44L35.50 16.44L35.50 12.50Q34.90 12.84 34.37 13.18Q33.84 13.51 33.44 13.88Q33.05 14.26 32.82 14.72Q32.59 15.19 32.59 15.79L32.59 15.79Q32.59 16.63 32.90 17.11Q33.22 17.59 33.82 17.59ZM44.04 19.80L44.04 19.80Q42.96 19.80 42.30 19.39Q41.64 18.98 41.34 18.24Q41.04 17.50 41.04 16.49L41.04 16.49L41.04 7.44L39.58 7.44L39.58 5.74L41.04 5.74L41.04 1.68L43.61 1.68L43.61 5.74L45.84 5.74L45.84 7.44L43.61 7.44L43.61 16.32Q43.61 17.14 43.87 17.48Q44.14 17.83 44.88 17.83L44.88 17.83Q45.07 17.83 45.32 17.81Q45.58 17.78 45.82 17.76L45.82 17.76L45.82 19.66Q45.34 19.73 44.93 19.76Q44.52 19.80 44.04 19.80ZM50.47 19.61L47.90 19.61L47.90 5.74L50.47 5.74L50.47 19.61ZM50.47 3.67L47.90 3.67L47.90 0.98L50.47 0.98L50.47 3.67ZM58.18 19.61L55.03 19.61L52.30 5.74L54.89 5.74L56.59 16.90L58.32 5.74L60.82 5.74L58.18 19.61ZM66.31 19.80L66.31 19.80Q64.68 19.80 63.79 19.16Q62.90 18.53 62.56 17.29Q62.21 16.06 62.21 14.26L62.21 14.26L62.21 11.09Q62.21 9.24 62.57 8.02Q62.93 6.79 63.83 6.17Q64.73 5.54 66.31 5.54L66.31 5.54Q68.06 5.54 68.89 6.26Q69.72 6.98 69.98 8.34Q70.25 9.70 70.25 11.59L70.25 11.59L70.25 12.72L64.78 12.72L64.78 15.50Q64.78 16.34 64.93 16.87Q65.09 17.40 65.44 17.65Q65.78 17.90 66.34 17.90L66.34 17.90Q66.91 17.90 67.21 17.63Q67.51 17.35 67.62 16.84Q67.73 16.32 67.73 15.62L67.73 15.62L67.73 14.78L70.22 14.78L70.22 15.31Q70.22 17.40 69.34 18.60Q68.45 19.80 66.31 19.80ZM64.78 10.58L64.78 11.33L67.73 11.33L67.73 10.08Q67.73 9.22 67.63 8.63Q67.54 8.04 67.24 7.74Q66.94 7.44 66.29 7.44L66.29 7.44Q65.66 7.44 65.34 7.73Q65.02 8.02 64.90 8.70Q64.78 9.38 64.78 10.58L64.78 10.58ZM83.16 19.82L83.16 19.82Q81.10 19.82 79.96 18.96Q78.82 18.10 78.37 16.63Q77.93 15.17 77.93 13.37L77.93 13.37L77.93 6.50Q77.93 4.54 78.37 3.07Q78.82 1.61 79.96 0.80Q81.10 0 83.16 0L83.16 0Q84.98 0 86.05 0.67Q87.12 1.34 87.59 2.59Q88.06 3.84 88.06 5.59L88.06 5.59L88.06 7.13L85.49 7.13L85.49 5.76Q85.49 4.68 85.38 3.85Q85.27 3.02 84.79 2.57Q84.31 2.11 83.18 2.11L83.18 2.11Q82.03 2.11 81.50 2.60Q80.98 3.10 80.82 4.00Q80.66 4.90 80.66 6.10L80.66 6.10L80.66 13.80Q80.66 15.26 80.90 16.12Q81.14 16.97 81.70 17.33Q82.25 17.69 83.18 17.69L83.18 17.69Q84.29 17.69 84.77 17.20Q85.25 16.70 85.37 15.84Q85.49 14.98 85.49 13.82L85.49 13.82L85.49 12.38L88.06 12.38L88.06 13.82Q88.06 15.60 87.62 16.96Q87.19 18.31 86.14 19.07Q85.08 19.82 83.16 19.82ZM94.25 19.80L94.25 19.80Q92.71 19.80 91.82 19.18Q90.94 18.55 90.56 17.40Q90.19 16.25 90.19 14.69L90.19 14.69L90.19 10.66Q90.19 9.10 90.56 7.94Q90.94 6.79 91.82 6.17Q92.71 5.54 94.25 5.54L94.25 5.54Q95.78 5.54 96.66 6.17Q97.54 6.79 97.91 7.94Q98.28 9.10 98.28 10.66L98.28 10.66L98.28 14.69Q98.28 16.25 97.91 17.40Q97.54 18.55 96.66 19.18Q95.78 19.80 94.25 19.80ZM94.25 17.90L94.25 17.90Q94.99 17.90 95.29 17.47Q95.59 17.04 95.65 16.33Q95.71 15.62 95.71 14.86L95.71 14.86L95.71 10.51Q95.71 9.72 95.65 9.02Q95.59 8.33 95.29 7.88Q94.99 7.44 94.25 7.44L94.25 7.44Q93.50 7.44 93.19 7.88Q92.88 8.33 92.82 9.02Q92.76 9.72 92.76 10.51L92.76 10.51L92.76 14.86Q92.76 15.62 92.82 16.33Q92.88 17.04 93.19 17.47Q93.50 17.90 94.25 17.90ZM103.85 19.80L103.85 19.80Q102.10 19.80 101.23 18.52Q100.37 17.23 100.37 14.16L100.37 14.16L100.37 11.47Q100.37 9.89 100.63 8.53Q100.90 7.18 101.63 6.36Q102.36 5.54 103.78 5.54L103.78 5.54Q104.47 5.54 105.05 5.86Q105.62 6.17 106.08 6.62L106.08 6.62L106.08 0.17L108.65 0.17L108.65 19.61L106.08 19.61L106.08 18.72Q105.62 19.20 105.08 19.50Q104.54 19.80 103.85 19.80ZM104.50 17.78L104.50 17.78Q104.86 17.78 105.26 17.65Q105.67 17.52 106.08 17.26L106.08 17.26L106.08 8.16Q105.74 7.92 105.34 7.74Q104.93 7.56 104.45 7.56L104.45 7.56Q103.56 7.56 103.25 8.41Q102.94 9.26 102.94 10.46L102.94 10.46L102.94 14.38Q102.94 15.34 103.04 16.12Q103.15 16.90 103.49 17.34Q103.82 17.78 104.50 17.78ZM115.08 19.80L115.08 19.80Q113.45 19.80 112.56 19.16Q111.67 18.53 111.32 17.29Q110.98 16.06 110.98 14.26L110.98 14.26L110.98 11.09Q110.98 9.24 111.34 8.02Q111.70 6.79 112.60 6.17Q113.50 5.54 115.08 5.54L115.08 5.54Q116.83 5.54 117.66 6.26Q118.49 6.98 118.75 8.34Q119.02 9.70 119.02 11.59L119.02 11.59L119.02 12.72L113.54 12.72L113.54 15.50Q113.54 16.34 113.70 16.87Q113.86 17.40 114.20 17.65Q114.55 17.90 115.10 17.90L115.10 17.90Q115.68 17.90 115.98 17.63Q116.28 17.35 116.39 16.84Q116.50 16.32 116.50 15.62L116.50 15.62L116.50 14.78L118.99 14.78L118.99 15.31Q118.99 17.40 118.10 18.60Q117.22 19.80 115.08 19.80ZM113.54 10.58L113.54 11.33L116.50 11.33L116.50 10.08Q116.50 9.22 116.40 8.63Q116.30 8.04 116.00 7.74Q115.70 7.44 115.06 7.44L115.06 7.44Q114.43 7.44 114.11 7.73Q113.78 8.02 113.66 8.70Q113.54 9.38 113.54 10.58L113.54 10.58ZM123.98 19.61L121.42 19.61L121.42 5.74L123.98 5.74L123.98 7.70Q124.75 6.43 125.52 6Q126.29 5.57 127.06 5.57L127.06 5.57Q127.15 5.57 127.24 5.57Q127.32 5.57 127.46 5.59L127.46 5.59L127.46 8.42Q127.18 8.30 126.80 8.22Q126.43 8.14 126.05 8.14L126.05 8.14Q125.45 8.14 124.96 8.41Q124.46 8.69 123.98 9.48L123.98 9.48L123.98 19.61ZM132.26 19.80L132.26 19.80Q130.56 19.80 129.53 18.73Q128.50 17.66 128.35 15.91L128.35 15.91L130.49 15.26Q130.68 16.58 131.14 17.24Q131.59 17.90 132.48 17.90L132.48 17.90Q133.18 17.90 133.54 17.51Q133.90 17.11 133.90 16.44L133.90 16.44Q133.90 15.84 133.63 15.36Q133.37 14.88 132.77 14.38L132.77 14.38L130.39 12.34Q129.67 11.71 129.18 10.94Q128.69 10.18 128.69 8.95L128.69 8.95Q128.69 7.85 129.13 7.09Q129.58 6.34 130.38 5.94Q131.18 5.54 132.26 5.54L132.26 5.54Q133.92 5.54 134.80 6.61Q135.67 7.68 135.79 9.19L135.79 9.19L134.06 9.84Q133.97 9.12 133.78 8.58Q133.58 8.04 133.25 7.74Q132.91 7.44 132.36 7.44L132.36 7.44Q131.74 7.44 131.36 7.86Q130.99 8.28 130.99 8.86L130.99 8.86Q130.99 9.22 131.15 9.56Q131.30 9.91 131.69 10.25L131.69 10.25L134.14 12.50Q134.64 12.96 135.08 13.49Q135.53 14.02 135.82 14.69Q136.10 15.36 136.10 16.25L136.10 16.25Q136.10 17.42 135.62 18.22Q135.14 19.01 134.28 19.40Q133.42 19.80 132.26 19.80Z" transform="translate(47.02, 4.588)"></path></svg>